<?xml version="1.0" encoding="UTF-8" standalone="no"?>
<!DOCTYPE svg PUBLIC "-//W3C//DTD SVG 1.1//EN"
 "http://www.w3.org/Graphics/SVG/1.1/DTD/svg11.dtd">
<!-- Generated by graphviz version 5.0.0 (20220707.1540)
 -->
<!-- Title: dependencies Pages: 1 -->
<svg width="853pt" height="174pt"
 viewBox="0.00 0.00 853.00 173.80" xmlns="http://www.w3.org/2000/svg" xmlns:xlink="http://www.w3.org/1999/xlink">
<g id="graph0" class="graph" transform="scale(1 1) rotate(0) translate(4 169.8)">
<title>dependencies</title>
<polygon fill="white" stroke="transparent" points="-4,4 -4,-169.8 849,-169.8 849,4 -4,4"/>
<text text-anchor="middle" x="422.5" y="-8.2" font-family="sans-serif" font-size="14.00">dependencies</text>
<g id="clust1" class="cluster">
<title>cluster_AuthModule</title>
<polygon fill="none" stroke="black" stroke-dasharray="1,5" points="8,-32.8 8,-157.8 837,-157.8 837,-32.8 8,-32.8"/>
</g>
<g id="clust3" class="cluster">
<title>cluster_AuthModule_imports</title>
<polygon fill="none" stroke="black" points="617,-40.8 617,-92.8 829,-92.8 829,-40.8 617,-40.8"/>
</g>
<g id="clust6" class="cluster">
<title>cluster_AuthModule_providers</title>
<polygon fill="none" stroke="black" points="16,-40.8 16,-92.8 609,-92.8 609,-40.8 16,-40.8"/>
</g>
<!-- EmailModule -->
<g id="node1" class="node">
<title>EmailModule</title>
<polygon fill="#8dd3c7" stroke="black" points="821.49,-84.8 818.49,-88.8 797.49,-88.8 794.49,-84.8 728.51,-84.8 728.51,-48.8 821.49,-48.8 821.49,-84.8"/>
<text text-anchor="middle" x="775" y="-62.6" font-family="Times,serif" font-size="14.00">EmailModule</text>
</g>
<!-- AuthModule -->
<g id="node3" class="node">
<title>AuthModule</title>
<polygon fill="#8dd3c7" stroke="black" points="506.55,-149.8 503.55,-153.8 482.55,-153.8 479.55,-149.8 419.45,-149.8 419.45,-113.8 506.55,-113.8 506.55,-149.8"/>
<text text-anchor="middle" x="463" y="-127.6" font-family="Times,serif" font-size="14.00">AuthModule</text>
</g>
<!-- EmailModule&#45;&gt;AuthModule -->
<g id="edge1" class="edge">
<title>EmailModule&#45;&gt;AuthModule</title>
<path fill="none" stroke="black" d="M775,-85.08C775,-106.12 775,-137.8 775,-137.8 775,-137.8 516.71,-137.8 516.71,-137.8"/>
<polygon fill="black" stroke="black" points="516.71,-134.3 506.71,-137.8 516.71,-141.3 516.71,-134.3"/>
</g>
<!-- UserModule -->
<g id="node2" class="node">
<title>UserModule</title>
<polygon fill="#8dd3c7" stroke="black" points="710.99,-84.8 707.99,-88.8 686.99,-88.8 683.99,-84.8 625.01,-84.8 625.01,-48.8 710.99,-48.8 710.99,-84.8"/>
<text text-anchor="middle" x="668" y="-62.6" font-family="Times,serif" font-size="14.00">UserModule</text>
</g>
<!-- UserModule&#45;&gt;AuthModule -->
<g id="edge2" class="edge">
<title>UserModule&#45;&gt;AuthModule</title>
<path fill="none" stroke="black" d="M668,-84.82C668,-102.17 668,-125.8 668,-125.8 668,-125.8 516.73,-125.8 516.73,-125.8"/>
<polygon fill="black" stroke="black" points="516.73,-122.3 506.73,-125.8 516.73,-129.3 516.73,-122.3"/>
</g>
<!-- AuthService -->
<g id="node4" class="node">
<title>AuthService</title>
<ellipse fill="#fdb462" stroke="black" cx="542" cy="-66.8" rx="59.11" ry="18"/>
<text text-anchor="middle" x="542" y="-62.6" font-family="Times,serif" font-size="14.00">AuthService</text>
</g>
<!-- AuthService&#45;&gt;AuthModule -->
<g id="edge3" class="edge">
<title>AuthService&#45;&gt;AuthModule</title>
<path fill="none" stroke="black" d="M494.73,-77.83C494.73,-77.83 494.73,-103.58 494.73,-103.58"/>
<polygon fill="black" stroke="black" points="491.23,-103.58 494.73,-113.58 498.23,-103.58 491.23,-103.58"/>
</g>
<!-- FacebookStrategy -->
<g id="node5" class="node">
<title>FacebookStrategy</title>
<ellipse fill="#fdb462" stroke="black" cx="384" cy="-66.8" rx="80.52" ry="18"/>
<text text-anchor="middle" x="384" y="-62.6" font-family="Times,serif" font-size="14.00">FacebookStrategy</text>
</g>
<!-- FacebookStrategy&#45;&gt;AuthModule -->
<g id="edge4" class="edge">
<title>FacebookStrategy&#45;&gt;AuthModule</title>
<path fill="none" stroke="black" d="M441.99,-79.33C441.99,-79.33 441.99,-103.65 441.99,-103.65"/>
<polygon fill="black" stroke="black" points="438.49,-103.65 441.99,-113.65 445.49,-103.65 438.49,-103.65"/>
</g>
<!-- JwtStrategy -->
<g id="node6" class="node">
<title>JwtStrategy</title>
<ellipse fill="#fdb462" stroke="black" cx="229" cy="-66.8" rx="56.77" ry="18"/>
<text text-anchor="middle" x="229" y="-62.6" font-family="Times,serif" font-size="14.00">JwtStrategy</text>
</g>
<!-- JwtStrategy&#45;&gt;AuthModule -->
<g id="edge5" class="edge">
<title>JwtStrategy&#45;&gt;AuthModule</title>
<path fill="none" stroke="black" d="M229,-84.82C229,-102.17 229,-125.8 229,-125.8 229,-125.8 409.26,-125.8 409.26,-125.8"/>
<polygon fill="black" stroke="black" points="409.26,-129.3 419.26,-125.8 409.26,-122.3 409.26,-129.3"/>
</g>
<!-- LocalStrategy -->
<g id="node7" class="node">
<title>LocalStrategy</title>
<ellipse fill="#fdb462" stroke="black" cx="89" cy="-66.8" rx="65.4" ry="18"/>
<text text-anchor="middle" x="89" y="-62.6" font-family="Times,serif" font-size="14.00">LocalStrategy</text>
</g>
<!-- LocalStrategy&#45;&gt;AuthModule -->
<g id="edge6" class="edge">
<title>LocalStrategy&#45;&gt;AuthModule</title>
<path fill="none" stroke="black" d="M89,-85.08C89,-106.12 89,-137.8 89,-137.8 89,-137.8 409.37,-137.8 409.37,-137.8"/>
<polygon fill="black" stroke="black" points="409.37,-141.3 419.37,-137.8 409.37,-134.3 409.37,-141.3"/>
</g>
</g>
</svg>
