<?xml version="1.0" encoding="UTF-8" standalone="no"?>
<!DOCTYPE svg PUBLIC "-//W3C//DTD SVG 1.1//EN"
 "http://www.w3.org/Graphics/SVG/1.1/DTD/svg11.dtd">
<!-- Generated by graphviz version 5.0.0 (20220707.1540)
 -->
<!-- Title: dependencies Pages: 1 -->
<svg width="747pt" height="174pt"
 viewBox="0.00 0.00 747.00 173.80" xmlns="http://www.w3.org/2000/svg" xmlns:xlink="http://www.w3.org/1999/xlink">
<g id="graph0" class="graph" transform="scale(1 1) rotate(0) translate(4 169.8)">
<title>dependencies</title>
<polygon fill="white" stroke="transparent" points="-4,4 -4,-169.8 743,-169.8 743,4 -4,4"/>
<text text-anchor="middle" x="369.5" y="-8.2" font-family="sans-serif" font-size="14.00">dependencies</text>
<g id="clust1" class="cluster">
<title>cluster_AppModule</title>
<polygon fill="none" stroke="black" stroke-dasharray="1,5" points="8,-32.8 8,-157.8 731,-157.8 731,-32.8 8,-32.8"/>
</g>
<g id="clust3" class="cluster">
<title>cluster_AppModule_imports</title>
<polygon fill="none" stroke="black" points="154,-40.8 154,-92.8 723,-92.8 723,-40.8 154,-40.8"/>
</g>
<g id="clust6" class="cluster">
<title>cluster_AppModule_providers</title>
<polygon fill="none" stroke="black" points="16,-40.8 16,-92.8 146,-92.8 146,-40.8 16,-40.8"/>
</g>
<!-- AuthModule -->
<g id="node1" class="node">
<title>AuthModule</title>
<polygon fill="#8dd3c7" stroke="black" points="714.55,-84.8 711.55,-88.8 690.55,-88.8 687.55,-84.8 627.45,-84.8 627.45,-48.8 714.55,-48.8 714.55,-84.8"/>
<text text-anchor="middle" x="671" y="-62.6" font-family="Times,serif" font-size="14.00">AuthModule</text>
</g>
<!-- AppModule -->
<g id="node6" class="node">
<title>AppModule</title>
<polygon fill="#8dd3c7" stroke="black" points="417.66,-149.8 414.66,-153.8 393.66,-153.8 390.66,-149.8 334.34,-149.8 334.34,-113.8 417.66,-113.8 417.66,-149.8"/>
<text text-anchor="middle" x="376" y="-127.6" font-family="Times,serif" font-size="14.00">AppModule</text>
</g>
<!-- AuthModule&#45;&gt;AppModule -->
<g id="edge1" class="edge">
<title>AuthModule&#45;&gt;AppModule</title>
<path fill="none" stroke="black" d="M671,-85.08C671,-106.12 671,-137.8 671,-137.8 671,-137.8 427.95,-137.8 427.95,-137.8"/>
<polygon fill="black" stroke="black" points="427.95,-134.3 417.95,-137.8 427.95,-141.3 427.95,-134.3"/>
</g>
<!-- DatabaseModule -->
<g id="node2" class="node">
<title>DatabaseModule</title>
<polygon fill="#8dd3c7" stroke="black" points="609.36,-84.8 606.36,-88.8 585.36,-88.8 582.36,-84.8 498.64,-84.8 498.64,-48.8 609.36,-48.8 609.36,-84.8"/>
<text text-anchor="middle" x="554" y="-62.6" font-family="Times,serif" font-size="14.00">DatabaseModule</text>
</g>
<!-- DatabaseModule&#45;&gt;AppModule -->
<g id="edge2" class="edge">
<title>DatabaseModule&#45;&gt;AppModule</title>
<path fill="none" stroke="black" d="M554,-84.82C554,-102.17 554,-125.8 554,-125.8 554,-125.8 427.73,-125.8 427.73,-125.8"/>
<polygon fill="black" stroke="black" points="427.73,-122.3 417.73,-125.8 427.73,-129.3 427.73,-122.3"/>
</g>
<!-- EmailModule -->
<g id="node3" class="node">
<title>EmailModule</title>
<polygon fill="#8dd3c7" stroke="black" points="480.49,-84.8 477.49,-88.8 456.49,-88.8 453.49,-84.8 387.51,-84.8 387.51,-48.8 480.49,-48.8 480.49,-84.8"/>
<text text-anchor="middle" x="434" y="-62.6" font-family="Times,serif" font-size="14.00">EmailModule</text>
</g>
<!-- EmailModule&#45;&gt;AppModule -->
<g id="edge3" class="edge">
<title>EmailModule&#45;&gt;AppModule</title>
<path fill="none" stroke="black" d="M402.67,-84.91C402.67,-84.91 402.67,-103.79 402.67,-103.79"/>
<polygon fill="black" stroke="black" points="399.17,-103.79 402.67,-113.79 406.17,-103.79 399.17,-103.79"/>
</g>
<!-- ProductModule -->
<g id="node4" class="node">
<title>ProductModule</title>
<polygon fill="#8dd3c7" stroke="black" points="369.6,-84.8 366.6,-88.8 345.6,-88.8 342.6,-84.8 266.4,-84.8 266.4,-48.8 369.6,-48.8 369.6,-84.8"/>
<text text-anchor="middle" x="318" y="-62.6" font-family="Times,serif" font-size="14.00">ProductModule</text>
</g>
<!-- ProductModule&#45;&gt;AppModule -->
<g id="edge4" class="edge">
<title>ProductModule&#45;&gt;AppModule</title>
<path fill="none" stroke="black" d="M351.86,-84.91C351.86,-84.91 351.86,-103.79 351.86,-103.79"/>
<polygon fill="black" stroke="black" points="348.36,-103.79 351.86,-113.79 355.36,-103.79 348.36,-103.79"/>
</g>
<!-- UserModule -->
<g id="node5" class="node">
<title>UserModule</title>
<polygon fill="#8dd3c7" stroke="black" points="247.99,-84.8 244.99,-88.8 223.99,-88.8 220.99,-84.8 162.01,-84.8 162.01,-48.8 247.99,-48.8 247.99,-84.8"/>
<text text-anchor="middle" x="205" y="-62.6" font-family="Times,serif" font-size="14.00">UserModule</text>
</g>
<!-- UserModule&#45;&gt;AppModule -->
<g id="edge5" class="edge">
<title>UserModule&#45;&gt;AppModule</title>
<path fill="none" stroke="black" d="M205,-84.82C205,-102.17 205,-125.8 205,-125.8 205,-125.8 324.17,-125.8 324.17,-125.8"/>
<polygon fill="black" stroke="black" points="324.17,-129.3 334.17,-125.8 324.17,-122.3 324.17,-129.3"/>
</g>
<!-- AppService -->
<g id="node7" class="node">
<title>AppService</title>
<ellipse fill="#fdb462" stroke="black" cx="81" cy="-66.8" rx="56.75" ry="18"/>
<text text-anchor="middle" x="81" y="-62.6" font-family="Times,serif" font-size="14.00">AppService</text>
</g>
<!-- AppService&#45;&gt;AppModule -->
<g id="edge6" class="edge">
<title>AppService&#45;&gt;AppModule</title>
<path fill="none" stroke="black" d="M81,-85.08C81,-106.12 81,-137.8 81,-137.8 81,-137.8 324.05,-137.8 324.05,-137.8"/>
<polygon fill="black" stroke="black" points="324.05,-141.3 334.05,-137.8 324.05,-134.3 324.05,-141.3"/>
</g>
</g>
</svg>
